<svg xmlns="http://www.w3.org/2000/svg" viewBox="0 0 108.66 24" role="img" aria-label="HiJiffy" fill="currentColor"><g transform="scale(1.018676) translate(0 0)"><g transform="scale(0.857143) translate(0 0)"><g clip-path="url(#clip0_435_7405)"><path d="M21.7391 24.0884C15.0879 24.0884 9.67578 18.7051 9.67578 12.0867C9.67578 10.7506 10.7641 9.66829 12.1069 9.66829C13.4496 9.66829 14.5379 10.7506 14.5379 12.0867C14.5379 16.0373 17.7683 19.2514 21.7391 19.2514C25.71 19.2514 28.9404 16.0373 28.9404 12.0867C28.9404 10.7506 30.0287 9.66829 31.3714 9.66829C32.7142 9.66829 33.8025 10.7506 33.8025 12.0867C33.8025 18.7045 28.391 24.0884 21.7391 24.0884Z" fill="currentColor"></path><path d="M31.3895 7.27019C32.7221 7.27019 33.8024 6.19258 33.8024 4.86328C33.8024 3.53398 32.7221 2.45638 31.3895 2.45638C30.0569 2.45638 28.9766 3.53398 28.9766 4.86328C28.9766 6.19258 30.0569 7.27019 31.3895 7.27019Z" fill="currentColor"></path><path d="M12.0633 0C18.7147 0 24.1267 5.38328 24.1267 12.0016C24.1267 13.3376 23.0384 14.42 21.6956 14.42C20.353 14.42 19.2646 13.3376 19.2646 12.0016C19.2646 8.05101 16.0342 4.83688 12.0633 4.83688C8.09254 4.83688 4.86212 8.05101 4.86212 12.0016C4.86212 13.3376 3.77376 14.42 2.43106 14.42C1.08836 14.42 0 13.3371 0 12.0016C0 5.38328 5.41153 0 12.0633 0Z" fill="currentColor"></path><path d="M2.41289 21.6319C3.7455 21.6319 4.82579 20.5543 4.82579 19.225C4.82579 17.8957 3.7455 16.8181 2.41289 16.8181C1.08029 16.8181 0 17.8957 0 19.225C0 20.5543 1.08029 21.6319 2.41289 21.6319Z" fill="currentColor"></path><path d="M57.4878 21.2519C57.4878 21.4616 57.3182 21.6319 57.1096 21.6319H55.1118C54.2756 21.6319 53.5979 20.9515 53.5979 20.1124V14.1872C53.5979 13.9774 53.4283 13.8071 53.2197 13.8071H45.8319C45.6226 13.8071 45.4536 13.9774 45.4536 14.1872V21.2519C45.4536 21.4616 45.2841 21.6319 45.0754 21.6319H43.1057C42.2695 21.6319 41.5918 20.9515 41.5918 20.1124V2.74733C41.5918 2.53756 41.7614 2.36732 41.97 2.36732H43.9398C44.7759 2.36732 45.4536 3.04772 45.4536 3.88681V9.51887C45.4536 9.72863 45.6232 9.89889 45.8319 9.89889H53.2197C53.4289 9.89889 53.5979 9.72863 53.5979 9.51887V2.74733C53.5979 2.53756 53.7674 2.36732 53.9761 2.36732H55.8412C56.7507 2.36732 57.4872 3.10263 57.4872 4.00927L57.4878 21.2519Z" fill="currentColor"></path><path d="M67.9242 17.0987C68.0437 16.8873 68.3255 16.8401 68.5117 16.9971C69.1976 17.5759 70.2281 18.0482 71.3324 18.0482C73.115 18.0482 74.1891 16.9356 74.1891 15.0811V3.87691C74.1891 3.03726 74.864 2.35687 75.6969 2.35687H77.7443C77.9521 2.35687 78.1217 2.52711 78.1217 2.73689V15.1382C78.1217 19.6462 75.5208 21.6429 71.6446 21.6429C69.8268 21.6429 67.9655 21.1849 66.6366 20.0037C66.5006 19.8829 66.466 19.6852 66.5551 19.527L67.9242 17.0987Z" fill="currentColor"></path><path d="M116.444 22.1543L114.925 27.0505C114.858 27.264 115.019 27.481 115.243 27.481H118.173C118.317 27.481 118.446 27.3876 118.49 27.2498L124.428 8.72602C124.497 8.51128 124.336 8.29218 124.11 8.29218H122.067C121.369 8.29218 120.753 8.75285 120.556 9.42446L117.543 19.0614C117.521 19.1345 117.455 19.1845 117.379 19.1845C117.301 19.1845 117.233 19.1318 117.214 19.0565L114.538 9.4695C114.355 8.77541 113.73 8.29218 113.015 8.29218H110.966C110.743 8.29218 110.583 8.5063 110.647 8.71941L114.229 20.7397C114.406 21.3228 114.942 21.7232 115.548 21.7232H116.126C116.35 21.7232 116.511 21.9406 116.444 22.1543Z" fill="currentColor"></path><path d="M82.3863 21.6643H84.1705C84.4023 21.6643 84.5905 21.4831 84.5905 21.2596V9.85655C84.5905 8.96257 83.9247 8.23769 82.9976 8.23769H81.1263C80.8945 8.23769 80.707 8.41891 80.707 8.64236V20.1223C80.707 20.974 81.4008 21.6649 82.2579 21.6649H82.3855L82.3863 21.6643Z" fill="currentColor"></path><path d="M82.6484 6.25366C83.7209 6.25366 84.5905 5.38503 84.5905 4.31353C84.5905 3.24202 83.7209 2.3734 82.6484 2.3734C81.5758 2.3734 80.707 3.24202 80.707 4.31353C80.707 5.38503 81.5758 6.25366 82.6484 6.25366Z" fill="currentColor"></path><path d="M61.7338 21.6643H63.5185C63.7503 21.6643 63.9381 21.4831 63.9381 21.2596V9.85655C63.9381 8.96257 63.2724 8.23769 62.3454 8.23769H60.4742C60.2424 8.23769 60.0547 8.41891 60.0547 8.64236V20.1223C60.0547 20.974 60.7489 21.6649 61.6055 21.6649L61.7338 21.6643Z" fill="currentColor"></path><path d="M61.9963 6.25366C63.0687 6.25366 63.9381 5.38503 63.9381 4.31353C63.9381 3.24202 63.0687 2.3734 61.9963 2.3734C60.924 2.3734 60.0547 3.24202 60.0547 4.31353C60.0547 5.38503 60.924 6.25366 61.9963 6.25366Z" fill="currentColor"></path><path d="M108.219 5.49471C108.41 5.49471 108.564 5.3404 108.564 5.15039V2.71164C108.564 2.52164 108.41 2.36732 108.219 2.36732H104.984C102.703 2.36732 100.855 4.06803 100.855 6.49415V7.9406C100.855 8.12291 100.707 8.27061 100.525 8.27061H99.229C99.0462 8.27061 98.8984 8.41839 98.8984 8.6007V11.3179C98.8984 11.5002 99.0462 11.6479 99.229 11.6479H100.525C100.707 11.6479 100.855 11.7956 100.855 11.9779V20.1278C100.855 20.98 101.547 21.6715 102.399 21.6715H104.319C104.551 21.6715 104.738 21.4891 104.738 21.2646V11.9779C104.738 11.7956 104.887 11.6479 105.069 11.6479H107.677C107.859 11.6479 108.007 11.5002 108.007 11.3179V8.59137C108.007 8.40906 107.859 8.26128 107.677 8.26128H104.638C104.456 8.26128 104.307 8.11358 104.307 7.93127V6.76049C104.307 6.09218 104.849 5.49471 105.518 5.49471H108.219Z" fill="currentColor"></path><path d="M96.483 5.49471C96.6728 5.49471 96.8275 5.3404 96.8275 5.15039V2.71164C96.8275 2.52164 96.6728 2.36732 96.483 2.36732H93.2474C90.967 2.36732 89.1182 4.06803 89.1182 6.49415V7.9406C89.1182 8.12291 88.9704 8.27061 88.7884 8.27061H87.4919C87.3099 8.27061 87.1621 8.41839 87.1621 8.6007V11.3179C87.1621 11.5002 87.3099 11.6479 87.4919 11.6479H88.7884C88.9704 11.6479 89.1182 11.7956 89.1182 11.9779V20.1278C89.1182 20.98 89.8097 21.6715 90.6629 21.6715H92.6377C92.8694 21.6715 93.0569 21.4891 93.0569 21.2646V11.9779C93.0569 11.7956 93.2047 11.6479 93.3874 11.6479H95.9401C96.1229 11.6479 96.2707 11.5002 96.2707 11.3179V8.59137C96.2707 8.40906 96.1229 8.26128 95.9401 8.26128H92.9013C92.7186 8.26128 92.5708 8.11358 92.5708 7.93127V6.76049C92.5708 6.09218 93.1129 5.49471 93.7818 5.49471H96.483Z" fill="currentColor"></path></g><defs><clipPath id="clip0_435_7405"><rect width="124.444" height="28" fill="currentColor"></rect></clipPath></defs></g></g></svg>
